<?xml version="1.0" standalone="no"?>
<!DOCTYPE svg PUBLIC "-//W3C//DTD SVG 20010904//EN"
 "http://www.w3.org/TR/2001/REC-SVG-20010904/DTD/svg10.dtd">
<svg version="1.0" xmlns="http://www.w3.org/2000/svg"
 width="993.000000pt" height="872.000000pt" viewBox="0 0 993.000000 872.000000"
 preserveAspectRatio="xMidYMid meet">

<g transform="translate(0.000000,872.000000) scale(0.100000,-0.100000)"
fill="#000000" stroke="none">
<path d="M2510 8704 c-19 -2 -77 -9 -128 -15 -432 -50 -861 -225 -1242 -507
-153 -114 -418 -379 -536 -537 -587 -786 -749 -1798 -438 -2745 161 -490 588
-1058 1459 -1938 842 -852 1989 -1871 3218 -2860 l127 -103 238 192 c1681
1363 3118 2699 3874 3601 262 312 467 608 578 833 183 369 282 857 267 1315
-21 637 -227 1225 -602 1721 -110 144 -383 415 -525 521 -373 276 -752 434
-1210 504 -143 22 -507 25 -650 5 -313 -43 -627 -143 -890 -282 -117 -62 -316
-194 -430 -285 -199 -159 -438 -428 -581 -652 -35 -56 -66 -101 -69 -101 -3 0
-34 45 -69 101 -143 224 -383 493 -581 652 -381 304 -811 492 -1282 561 -99
15 -455 28 -528 19z m375 -604 c589 -66 1113 -382 1466 -885 31 -44 181 -295
334 -557 152 -263 281 -478 285 -478 4 0 133 215 285 478 153 262 303 513 334
557 485 690 1293 1022 2070 849 859 -192 1497 -915 1648 -1867 25 -158 25
-527 0 -685 -39 -245 -114 -492 -196 -647 -194 -365 -581 -832 -1241 -1499
-588 -594 -1150 -1111 -1970 -1815 -331 -284 -899 -759 -923 -772 -19 -11
-958 780 -1527 1285 -606 539 -1005 918 -1514 1436 -551 562 -959 1068 -1124
1396 -68 136 -144 395 -178 616 -23 140 -26 516 -6 653 63 438 243 861 504
1183 428 529 1114 823 1753 752z"/>
</g>
</svg>
