<svg width="45" height="40" viewBox="0 0 45 40" fill="none" xmlns="http://www.w3.org/2000/svg">
<g clip-path="url(#clip0)">
<path d="M11.3731 0.0724751C11.287 0.0815371 11.0242 0.113254 10.7931 0.14044C8.83573 0.366992 6.89192 1.15992 5.1656 2.43767C4.47235 2.95421 3.27163 4.15493 2.73697 4.87083C0.0772575 8.43222 -0.656769 13.0176 0.752381 17.3085C1.48188 19.5287 3.41663 22.1023 7.36315 26.0896C11.1783 29.9501 16.3754 34.5672 21.944 39.0484L22.5194 39.5151L23.5978 38.6451C31.2145 32.4693 37.7256 26.4159 41.151 22.3289C42.3382 20.9152 43.267 19.574 43.77 18.5545C44.5991 16.8826 45.0477 14.6714 44.9797 12.5962C44.8846 9.70997 43.9512 7.04573 42.2521 4.79834C41.7536 4.14587 40.5167 2.91796 39.8733 2.43767C38.1832 1.18711 36.4659 0.471206 34.3907 0.154034C33.7428 0.054351 32.0935 0.0407579 31.4456 0.131378C30.0274 0.326213 28.6046 0.779315 27.4129 1.40913C26.8828 1.69005 25.9811 2.28815 25.4646 2.70047C24.5629 3.4209 23.48 4.63975 22.8321 5.6547C22.6735 5.90844 22.533 6.11234 22.5194 6.11234C22.5058 6.11234 22.3654 5.90844 22.2068 5.6547C21.5589 4.63975 20.4714 3.4209 19.5743 2.70047C17.8479 1.32304 15.8996 0.471206 13.7655 0.158565C13.3169 0.0905992 11.7039 0.0316958 11.3731 0.0724751ZM13.0722 2.80922C15.741 3.10826 18.1153 4.54007 19.7147 6.81918C19.8552 7.01854 20.5348 8.15583 21.2281 9.34296C21.9168 10.5346 22.5013 11.5088 22.5194 11.5088C22.5376 11.5088 23.1221 10.5346 23.8108 9.34296C24.504 8.15583 25.1837 7.01854 25.3241 6.81918C27.5217 3.69277 31.1828 2.18847 34.7034 2.97233C38.5955 3.84229 41.4863 7.11822 42.1705 11.4318C42.2838 12.1477 42.2838 13.8196 42.1705 14.5355C41.9938 15.6456 41.654 16.7648 41.2824 17.4671C40.4034 19.1209 38.6499 21.2369 35.6594 24.2591C32.9952 26.9505 30.4487 29.2931 26.7333 32.4829C25.2335 33.7697 22.6599 35.922 22.5512 35.9809C22.4651 36.0307 18.2104 32.4467 15.6323 30.1585C12.8865 27.7163 11.0786 25.999 8.7723 23.6519C6.2757 21.1055 4.42704 18.8128 3.67942 17.3266C3.37131 16.7104 3.02696 15.5369 2.8729 14.5355C2.76869 13.9012 2.75509 12.1975 2.84572 11.5768C3.13117 9.59217 3.94676 7.67554 5.12935 6.21655C7.06863 3.81964 10.1769 2.48751 13.0722 2.80922Z" fill="#8FBC8F"/>
<ellipse cx="31.5" cy="13" rx="11.5" ry="12" fill="#8FBC8F"/>
<ellipse cx="22.5" cy="22" rx="11.5" ry="12" fill="#8FBC8F"/>
<ellipse cx="12.5" cy="14" rx="11.5" ry="12" fill="#8FBC8F"/>
<ellipse cx="19.5" cy="19" rx="11.5" ry="12" fill="#8FBC8F"/>
<ellipse cx="22.5" cy="24" rx="11.5" ry="12" fill="#8FBC8F"/>
<ellipse cx="28.5" cy="18" rx="11.5" ry="12" fill="#8FBC8F"/>
</g>
<defs>
<clipPath id="clip0">
<rect width="44.9931" height="39.5106" fill="white"/>
</clipPath>
</defs>
</svg>
